<?xml version="1.0" encoding="UTF-8"?>
<svg id="Layer_1" data-name="Layer 1" xmlns="http://www.w3.org/2000/svg" viewBox="0 0 125.05 111.1">
  <defs>
    <style>
      .cls-1 {
        fill: #c6e5cc;
        stroke-width: 4px;
        stroke: #677a6c;
      }
    </style>
  </defs>
  <path class="cls-1" d="m93.9,2.03c-17.48,0-31.64,14.17-31.64,31.64,0-.59-.02-1.18-.05-1.77-.03.59-.05,1.18-.05,1.77,0-17.48-14.17-31.64-31.64-31.64S1.33,19.35,2.48,36.79c2.36,35.78,59.67,73.69,59.67,73.69,0,0,.02-.01.05-.03.03.02.05.03.05.03,0,0,57.31-37.91,59.67-73.69,1.15-17.44-10.55-34.76-28.03-34.76Z"/>
</svg>