<svg viewBox="0 0 600 312" xmlns="http://www.w3.org/2000/svg"><path d="m169.2 105.72c4.44-6.61 9.7-12.66 15.32-18.32 2.82-2.83 5.74-5.56 8.78-8.15 1.5-1.32 3.07-2.56 4.62-3.82 1.59-1.22 3.17-2.45 4.79-3.62 12.97-9.38 27.48-16.82 42.94-21.45 7.72-2.32 15.66-3.95 23.68-4.92 8.03-.96 16.09-1.3 24.27-.85 8.15.61 16.21 2.23 23.99 4.71 7.81 2.43 15.23 5.89 22.35 9.76 7.13 3.88 13.95 8.25 20.5 12.92 6.57 4.65 12.95 9.5 19.23 14.42 6.29 4.9 12.5 9.87 18.76 14.69 6.27 4.81 12.62 9.47 19.11 13.83 6.52 4.33 13.23 8.28 20.14 11.74l5.23 2.48c1.77.76 3.56 1.46 5.34 2.19 1.76.78 3.6 1.33 5.41 1.95 1.82.61 3.62 1.27 5.48 1.7 7.34 2.2 14.93 3.27 22.52 3.84l5.71.27 5.73-.15 2.86-.08 2.86-.29 5.71-.58 9.34-.94-4.53 8.01c-1.2 2.13-2.36 4.02-3.59 5.97-1.22 1.94-2.46 3.84-3.73 5.73-2.53 3.79-5.18 7.48-7.89 11.12-5.45 7.27-11.22 14.29-17.33 21.03-12.23 13.43-25.7 25.88-40.7 36.37-3.7 2.69-7.59 5.11-11.46 7.57l-5.93 3.48c-1.97 1.17-4.04 2.17-6.06 3.26-8.16 4.21-16.59 7.97-25.35 10.84l-3.27 1.13-3.33.95c-2.22.61-4.43 1.31-6.67 1.85-4.51.99-8.99 2.1-13.58 2.72l-3.42.55c-.57.08-1.14.2-1.71.26l-1.72.17-6.9.67c-1.15.14-2.3.15-3.46.19l-3.46.12c-2.31.06-4.62.21-6.93.11-9.24-.12-18.5-1.05-27.6-2.87-9.09-1.85-18.02-4.52-26.57-8.07-8.56-3.52-16.78-7.79-24.6-12.62-7.8-4.86-15.23-10.23-22.33-15.93-14.19-11.42-27.05-24.12-39.9-36.38l-4.83-4.56-2.42-2.26c-.41-.4-.79-.72-1.17-1.04l-1.13-.97c-3.07-2.54-6.48-4.65-10.13-6.25-7.29-3.22-15.51-4.37-23.43-3.25-3.98.55-7.8 1.65-11.56 3.26-3.91 1.69-7.72 3.62-11.4 5.77-3.67 2.17-7.23 4.54-10.62 7.13-1.69 1.3-3.34 2.64-4.93 4.04-.4.35-.79.7-1.18 1.06-.25.22-1.13 1.05-1.93 1.55-1.65 1.06-3.59 1.68-5.55 1.75-3.92.19-7.86-1.91-9.86-5.27-2.07-3.34-2.17-7.75-.2-11.15.22-.43.52-.82.8-1.22l.46-.56.24-.27.15-.17 1.16-1.23 2.32-2.46c1.6-1.62 3.14-3.28 4.81-4.86 6.54-6.4 13.62-12.33 21.2-17.55 15.14-10.51 32.24-17.79 49.77-22.72 17.59-4.86 35.7-7.06 53.75-7.77 18.14-.55 36.53 1.32 53.92 6.72 8.69 2.65 17.11 6.07 25.26 9.95 8.15 3.87 16.01 8.23 23.81 12.58 7.8 4.36 15.55 8.71 23.51 12.62 7.95 3.92 16.16 7.28 24.7 9.62 8.52 2.35 17.33 3.7 26.21 3.98 8.88.29 17.8-.49 26.61-1.98-8.73 1.87-17.64 3.03-26.62 3.13-1.12 0-2.25.06-3.37.02l-3.37-.15c-1.12-.06-2.25-.07-3.37-.18l-3.36-.35c-2.25-.19-4.46-.59-6.68-.97-2.23-.32-4.41-.89-6.62-1.37-8.78-2.07-17.28-5.21-25.48-8.89-8.22-3.66-16.16-7.85-24.07-11.96-7.92-4.12-15.81-8.19-23.91-11.75-8.08-3.57-16.36-6.62-24.81-8.96-16.89-4.82-34.56-6.2-52.05-5.27l-13.17 1.11c-1.1.07-2.19.22-3.28.38l-3.27.46-6.53.92-1.63.23-1.61.32-3.23.63-6.46 1.26c-2.14.45-4.25 1.06-6.37 1.58-2.11.56-4.25 1.04-6.35 1.67-16.73 5.01-32.81 12.2-46.88 22.32-7.05 5.03-13.61 10.7-19.73 16.9-1.56 1.51-3.03 3.16-4.55 4.72l-2.25 2.43-1.12 1.22-.13.14-.03.05s-.05.06-.07.08c-.02.07-.09.11-.11.18-.28.48-.23 1.16.06 1.61.3.49.86.76 1.41.72.28 0 .54-.11.76-.25-.07.11 1.15-1.06 1.95-1.76 1.75-1.56 3.55-3.06 5.39-4.5 3.68-2.88 7.54-5.5 11.53-7.91 4-2.39 8.15-4.54 12.42-6.44 4.42-1.96 9.23-3.41 14.09-4.13 9.75-1.47 19.89-.17 28.97 3.73 4.54 1.94 8.82 4.52 12.66 7.64l1.42 1.19c.48.4.95.8 1.34 1.17l2.5 2.29 4.92 4.61c13.01 12.35 25.66 24.73 39.35 35.67 6.84 5.45 13.93 10.54 21.3 15.1 7.39 4.52 15.08 8.48 23.04 11.73 7.95 3.27 16.22 5.7 24.63 7.39 8.41 1.7 16.98 2.6 25.59 2.74 2.15.1 4.31-.03 6.46-.08l3.23-.1c1.08-.04 2.16-.04 3.23-.17l6.43-.6 1.61-.15c.54-.06 1.07-.16 1.6-.24l3.19-.5c4.28-.55 8.47-1.59 12.68-2.5 2.1-.5 4.16-1.15 6.24-1.71l3.12-.88 3.06-1.05c8.22-2.65 16.16-6.17 23.88-10.12 1.91-1.03 3.87-1.96 5.74-3.06l5.63-3.28c3.67-2.32 7.38-4.6 10.91-7.15 14.3-9.95 27.41-21.68 39.32-34.54 5.95-6.43 11.6-13.16 16.93-20.13 2.65-3.49 5.25-7.03 7.71-10.65 1.24-1.8 2.46-3.62 3.63-5.45 1.17-1.81 2.36-3.72 3.37-5.47l4.8 7.07-6.17.57-3.08.28-3.1.07c-2.07.03-4.14.09-6.21.09l-6.21-.35c-8.25-.69-16.49-2.05-24.37-4.54-2.01-.51-3.94-1.24-5.88-1.93-1.94-.7-3.9-1.34-5.77-2.19-1.89-.81-3.79-1.6-5.66-2.44l-5.51-2.72c-7.25-3.78-14.21-8.04-20.87-12.63-13.29-9.23-25.59-19.51-37.86-29.57-6.13-5.04-12.31-9.96-18.63-14.65-6.3-4.71-12.81-9.09-19.57-12.98-6.76-3.87-13.76-7.34-21.11-9.8-7.33-2.49-14.9-4.28-22.61-5.08-7.7-.65-15.59-.56-23.39.15s-15.56 2.07-23.15 4.11c-15.19 4.04-29.67 10.76-42.8 19.58-3.27 2.21-6.48 4.54-9.58 7-3.12 2.43-6.13 5.02-9.05 7.71-5.82 5.38-11.31 11.18-16.03 17.59z" fill="#c6e5cc"/></svg>